<svg width="34" height="34" viewBox="0 0 34 34" fill="none" xmlns="http://www.w3.org/2000/svg">
<path d="M12.6167 33.6938L8.2625 25.4729L0 21.0771L2.25625 18.8333L9.44792 20.0563L15.8021 13.7021L0.172917 7.03125L3.06458 4.15625L22.075 7.41667L28.575 0.877083C29.1583 0.292361 29.8736 0 30.7208 0C31.5681 0 32.2833 0.292361 32.8667 0.877083C33.4528 1.46181 33.7458 2.17569 33.7458 3.01875C33.7458 3.86181 33.4535 4.5757 32.8688 5.16042L26.3167 11.6708L29.5792 30.6708L26.675 33.575L20.0313 17.9458L13.6771 24.3L14.8708 31.4396L12.6167 33.6938Z" fill="white"/>
</svg>
