<svg width="60" height="47" viewBox="0 0 60 47" fill="none" xmlns="http://www.w3.org/2000/svg">
<g clip-path="url(#clip0_60_260)">
<path d="M10.9078 46.7664V43.6556C10.9078 42.4629 10.1873 41.6854 8.95241 41.6854C8.33507 41.6854 7.66616 41.8928 7.20304 42.5668C6.84304 41.9964 6.32858 41.6854 5.55679 41.6854C5.0421 41.6854 4.52788 41.8408 4.11608 42.4112V41.7891H3.03561V46.7664H4.11608V44.0184C4.11608 43.1372 4.57921 42.7222 5.29968 42.7222C6.01968 42.7222 6.38015 43.1889 6.38015 44.0184V46.7664H7.46061V44.0184C7.46061 43.1372 7.97483 42.7222 8.64374 42.7222C9.36421 42.7222 9.72421 43.1889 9.72421 44.0184V46.7664H10.9078ZM26.9088 41.7891H25.1597V40.2856H24.0792V41.7891H23.1016V42.774H24.079V45.0555C24.079 46.1962 24.5421 46.87 25.777 46.87C26.2401 46.87 26.7544 46.7146 27.1148 46.5073L26.8059 45.5739C26.4973 45.7812 26.1373 45.8332 25.8799 45.8332C25.3655 45.8332 25.1597 45.5222 25.1597 45.0035V42.774H26.9088V41.7891ZM36.0673 41.6852C35.4499 41.6852 35.0383 41.9964 34.781 42.4112V41.7891H33.7005V46.7664H34.781V43.9667C34.781 43.1372 35.141 42.6705 35.8099 42.6705C36.0157 42.6705 36.273 42.7225 36.4788 42.7742L36.7875 41.7374C36.5817 41.6854 36.273 41.6854 36.0673 41.6854M22.2269 42.204C21.7123 41.841 20.992 41.6856 20.2202 41.6856C18.9855 41.6856 18.1624 42.3077 18.1624 43.2928C18.1624 44.1225 18.7798 44.589 19.8602 44.7446L20.3747 44.7966C20.9407 44.9001 21.2494 45.0557 21.2494 45.315C21.2494 45.6778 20.8378 45.9371 20.1173 45.9371C19.3969 45.9371 18.8311 45.6778 18.4708 45.4187L17.9564 46.2482C18.5224 46.6629 19.2942 46.8703 20.0658 46.8703C21.5065 46.8703 22.3298 46.1964 22.3298 45.2631C22.3298 44.3816 21.6609 43.9149 20.6318 43.7595L20.1173 43.7076C19.6542 43.6556 19.2942 43.5522 19.2942 43.2411C19.2942 42.8781 19.6542 42.6707 20.2202 42.6707C20.8378 42.6707 21.4551 42.9298 21.7638 43.0855L22.2269 42.204ZM50.9367 41.6856C50.3191 41.6856 49.9076 41.9967 49.6502 42.4114V41.7893H48.5698V46.7666H49.6502V43.9669C49.6502 43.1374 50.0105 42.6707 50.6791 42.6707C50.8851 42.6707 51.1425 42.7227 51.3483 42.7744L51.6569 41.7376C51.4512 41.6856 51.1425 41.6856 50.9367 41.6856ZM37.1477 44.278C37.1477 45.7815 38.1766 46.8703 39.7718 46.8703C40.492 46.8703 41.0065 46.7149 41.5209 46.3001L41.0065 45.4187C40.5949 45.7298 40.1833 45.8852 39.7202 45.8852C38.8455 45.8852 38.2282 45.2631 38.2282 44.278C38.2282 43.3448 38.8455 42.7225 39.7202 42.6707C40.1833 42.6707 40.5949 42.8261 41.0065 43.1374L41.5209 42.256C41.0065 41.841 40.492 41.6856 39.7718 41.6856C38.1766 41.6856 37.1477 42.7744 37.1477 44.278ZM47.1293 44.278V41.7893H46.0488V42.4114C45.6886 41.945 45.1741 41.6856 44.5052 41.6856C43.1161 41.6856 42.0356 42.7744 42.0356 44.278C42.0356 45.7815 43.1161 46.8703 44.5052 46.8703C45.2255 46.8703 45.7401 46.6112 46.0488 46.1445V46.7666H47.1293V44.278ZM43.1674 44.278C43.1674 43.3965 43.7334 42.6707 44.6594 42.6707C45.5341 42.6707 46.1517 43.3448 46.1517 44.278C46.1517 45.1594 45.5341 45.8852 44.6594 45.8852C43.7334 45.8332 43.1674 45.1594 43.1674 44.278ZM30.2533 41.6856C28.8126 41.6856 27.7835 42.7225 27.7835 44.278C27.7835 45.8334 28.8124 46.8703 30.3047 46.8703C31.0249 46.8703 31.7454 46.6629 32.3114 46.1965L31.7967 45.4187C31.3851 45.7298 30.8707 45.9371 30.3562 45.9371C29.6873 45.9371 29.0184 45.6261 28.864 44.7444H32.5172V44.3299C32.5687 42.7225 31.6427 41.6856 30.2533 41.6856ZM30.2531 42.6188C30.9218 42.6188 31.3851 43.0338 31.4878 43.8115H28.9153C29.0182 43.1374 29.4813 42.6188 30.2531 42.6188ZM57.0591 44.278V39.8191H55.9786V42.4114C55.6183 41.945 55.1039 41.6856 54.435 41.6856C53.0458 41.6856 51.9654 42.7744 51.9654 44.278C51.9654 45.7815 53.0458 46.8703 54.435 46.8703C55.1555 46.8703 55.6699 46.6112 55.9786 46.1445V46.7666H57.0591V44.278ZM53.0974 44.278C53.0974 43.3965 53.6632 42.6707 54.5894 42.6707C55.4641 42.6707 56.0815 43.3448 56.0815 44.278C56.0815 45.1594 55.4641 45.8852 54.5894 45.8852C53.6632 45.8332 53.0974 45.1594 53.0974 44.278ZM16.9786 44.278V41.7893H15.8981V42.4114C15.5379 41.945 15.0234 41.6856 14.3545 41.6856C12.9654 41.6856 11.8849 42.7744 11.8849 44.278C11.8849 45.7815 12.9654 46.8703 14.3545 46.8703C15.075 46.8703 15.5894 46.6112 15.8981 46.1445V46.7666H16.9786V44.278ZM12.9654 44.278C12.9654 43.3965 13.5314 42.6707 14.4574 42.6707C15.3321 42.6707 15.9497 43.3448 15.9497 44.278C15.9497 45.1594 15.3321 45.8852 14.4574 45.8852C13.5314 45.8332 12.9654 45.1594 12.9654 44.278Z" fill="black"/>
<path d="M21.8667 3.99219H38.0738V33.3379H21.8667V3.99219Z" fill="#FF5F00"/>
<path d="M22.8959 18.6651C22.8959 12.7028 25.6741 7.41419 29.9445 3.99217C26.8062 1.50353 22.8445 0 18.5227 0C8.28352 0 0 8.34734 0 18.6651C0 28.9829 8.28352 37.3303 18.5224 37.3303C22.8443 37.3303 26.8059 35.8268 29.9445 33.3379C25.6741 29.9678 22.8959 24.6275 22.8959 18.6651Z" fill="#EB001B"/>
<path d="M59.9405 18.6651C59.9405 28.9827 51.6569 37.3303 41.418 37.3303C37.0962 37.3303 33.1345 35.8268 29.996 33.3379C34.3179 29.9161 37.0448 24.6275 37.0448 18.6651C37.0448 12.7028 34.2663 7.41419 29.996 3.99217C33.1343 1.50353 37.0962 0 41.418 0C51.6569 0 59.9405 8.3993 59.9405 18.6651Z" fill="#F79E1B"/>
</g>
<defs>
<clipPath id="clip0_60_260">
<rect width="60" height="47" fill="white"/>
</clipPath>
</defs>
</svg>
