<svg width="37" height="41" viewBox="0 0 37 41" fill="none" xmlns="http://www.w3.org/2000/svg">
<path d="M36.5813 11.9811L36.6271 12.3769L36.6417 12.7811V27.9228C36.6415 28.774 36.4327 29.6121 36.0335 30.364C35.6344 31.1158 35.0571 31.7583 34.3521 32.2353L34.0396 32.4332L20.925 40.004L20.6667 40.1436L20.4042 40.2686V21.5394L36.5813 11.9811ZM0.0604163 11.9811L16.2375 21.5415V40.2665C16.0599 40.1872 15.8861 40.0996 15.7167 40.004L2.60417 32.4332C1.81242 31.9761 1.15494 31.3186 0.697817 30.5269C0.240692 29.7351 2.32251e-05 28.837 0 27.9228V12.7811C0 12.5103 0.0208333 12.2436 0.0624999 11.9811H0.0604163ZM20.925 0.699867L34.0375 8.2707C34.1431 8.3332 34.2458 8.39709 34.3458 8.46237L18.3208 17.9353L2.29583 8.46028C2.39673 8.39342 2.49955 8.32951 2.60417 8.26862L15.7167 0.697784C16.5084 0.240657 17.4066 0 18.3208 0C19.2351 0 20.1332 0.242741 20.925 0.699867Z" fill="white"/>
</svg>
