<svg width="60" height="71" viewBox="0 0 60 71" fill="none" xmlns="http://www.w3.org/2000/svg">
<g clip-path="url(#clip0_60_255)">
<path d="M50.8988 5.52653C47.633 1.79269 41.7295 0.191895 34.1773 0.191895H12.2585C11.5113 0.191779 10.7885 0.459135 10.2202 0.94587C9.6519 1.43261 9.27541 2.10677 9.15844 2.84711L0.0318775 60.9089C-0.149529 62.0538 0.734299 63.0906 1.89117 63.0906H15.423L18.8215 41.4683L18.716 42.1454C18.9581 40.617 20.2613 39.4897 21.8044 39.4897H28.2347C40.867 39.4897 50.7584 34.3429 53.6477 19.4543C53.7335 19.0139 53.8078 18.5854 53.872 18.1666C53.5073 17.9729 53.5073 17.9729 53.872 18.1666C54.7324 12.6637 53.8662 8.91784 50.8988 5.52653Z" fill="#27346A"/>
<path d="M23.9993 16.1843C24.3691 16.0073 24.7738 15.9157 25.1836 15.9163H42.3675C44.4023 15.9163 46.3003 16.0491 48.0347 16.3291C48.52 16.4068 49.0028 16.4995 49.4824 16.607C50.1622 16.7575 50.8341 16.9416 51.4957 17.1588C52.3484 17.4444 53.1424 17.7771 53.8723 18.1666C54.7324 12.6616 53.8662 8.91784 50.8988 5.52653C47.6311 1.79269 41.7295 0.191895 34.1773 0.191895H12.2566C10.7133 0.191895 9.40032 1.31896 9.15844 2.84711L0.0318788 60.9068C-0.149527 62.0536 0.734301 63.089 1.8893 63.089H15.4231L22.4738 18.2391C22.5431 17.7982 22.7182 17.3809 22.984 17.023C23.2497 16.6651 23.5981 16.3773 23.9993 16.1843Z" fill="#27346A"/>
<path d="M53.6477 19.4543C50.7584 34.3408 40.8673 39.4897 28.2347 39.4897H21.8025C20.2594 39.4897 18.956 40.617 18.7163 42.1453L14.4884 69.0301C14.3304 70.0321 15.1029 70.9401 16.1135 70.9401H27.5205C28.174 70.9399 28.8059 70.7059 29.3027 70.2801C29.7995 69.8543 30.1285 69.2647 30.2306 68.6173L30.3417 68.0343L32.4916 54.3665L32.6302 53.6111C32.7323 52.9638 33.0613 52.3742 33.558 51.9484C34.0547 51.5226 34.6866 51.2886 35.34 51.2884H37.0472C48.0973 51.2884 56.7497 46.7853 59.2781 33.7617C60.3335 28.3192 59.7874 23.7752 56.9956 20.5834C56.1488 19.6167 55.0971 18.8183 53.872 18.1666C53.8057 18.5875 53.7338 19.0139 53.6477 19.4543Z" fill="#2790C3"/>
<path d="M50.8481 16.9573C50.3976 16.8253 49.9428 16.7085 49.4845 16.607C49.0047 16.5012 48.5219 16.4091 48.0368 16.331C46.3006 16.0491 44.404 15.916 42.3673 15.916H25.1855C24.7755 15.9153 24.3706 16.0077 24.0012 16.1861C23.5995 16.3784 23.2506 16.666 22.9847 17.0241C22.7189 17.3821 22.544 17.7998 22.4754 18.2409L18.8234 41.4683L18.7179 42.1453C18.9581 40.617 20.2613 39.4897 21.8046 39.4897H28.2368C40.8691 39.4897 50.7602 34.3429 53.6496 19.4543C53.7356 19.0139 53.8078 18.5872 53.8741 18.1666C53.1426 17.7795 52.3504 17.4442 51.4976 17.1606C51.2824 17.0891 51.0659 17.0213 50.8484 16.9573" fill="#1F264F"/>
</g>
<defs>
<clipPath id="clip0_60_255">
<rect width="60" height="71" fill="white"/>
</clipPath>
</defs>
</svg>
