<svg width="60" height="47" viewBox="0 0 60 47" fill="none" xmlns="http://www.w3.org/2000/svg">
<path d="M48.9694 20.7619C48.9694 20.7619 49.7606 24.6375 49.9387 25.4494H46.4606L48.1275 20.9175C48.1069 20.9494 48.4706 19.9687 48.6787 19.365L48.9694 20.7619ZM60 5.00062V41.6681C59.9985 42.9939 59.4712 44.265 58.5337 45.2025C57.5962 46.1399 56.3252 46.6673 54.9994 46.6687H4.99875C3.67296 46.6673 2.40189 46.1399 1.46442 45.2025C0.52694 44.265 -0.000388013 42.9939 -0.00187683 41.6681V5.00062C-0.000388013 3.67483 0.52694 2.40377 1.46442 1.46629C2.40189 0.528817 3.67296 0.00148882 4.99875 0H54.9994C56.3252 0.00148882 57.5962 0.528817 58.5337 1.46629C59.4712 2.40377 59.9985 3.67483 60 5.00062ZM15.885 31.1681L22.4681 15.0019H18.0412L13.9481 26.0437L13.5 23.805L12.0412 16.3669C11.8012 15.3356 11.0625 15.0431 10.1456 15.0019H3.40687L3.33375 15.3244C4.87688 15.7034 6.35716 16.3033 7.72875 17.1056L11.4581 31.1681H15.885ZM25.7194 31.1887L28.3444 15.0019H24.1575L21.5437 31.1887H25.7194ZM40.2919 25.8975C40.3125 24.0544 39.1875 22.6481 36.7819 21.4912C35.3137 20.7506 34.4175 20.2519 34.4175 19.4906C34.4381 18.8025 35.1787 18.0937 36.8231 18.0937C37.8943 18.0619 38.9588 18.2721 39.9375 18.7087L40.3125 18.885L40.8862 15.3844C39.6887 14.9281 38.4178 14.6949 37.1362 14.6962C33 14.6962 30.0937 16.905 30.0731 20.0494C30.0412 22.3725 32.1562 23.6644 33.7406 24.4444C35.355 25.2356 35.9081 25.7569 35.9081 26.4544C35.8875 27.5381 34.5956 28.0369 33.3975 28.0369C31.7306 28.0369 30.8344 27.7762 29.4694 27.1725L28.9181 26.9119L28.335 30.5475C29.3137 30.9956 31.1269 31.3912 33.0019 31.4119C37.3969 31.4212 40.2619 29.2444 40.2937 25.8919L40.2919 25.8975ZM54.9994 31.1887L51.6244 15.0019H48.3844C47.385 15.0019 46.6237 15.2944 46.1962 16.3462L39.9769 31.1906H44.3719C44.3719 31.1906 45.09 29.19 45.2475 28.7644H50.6231C50.7487 29.3381 51.1237 31.1906 51.1237 31.1906L54.9994 31.1887Z" fill="black"/>
</svg>
