<svg width="50" height="50" viewBox="0 0 50 50" fill="none" xmlns="http://www.w3.org/2000/svg">
<path d="M25 0C27.2949 0 29.5085 0.292969 31.6406 0.878906C33.7728 1.46484 35.7585 2.3112 37.5977 3.41797C39.4368 4.52474 41.1214 5.82682 42.6514 7.32422C44.1813 8.82161 45.4915 10.5062 46.582 12.3779C47.6725 14.2497 48.5107 16.2435 49.0967 18.3594C49.6826 20.4753 49.9837 22.6888 50 25C50 27.2949 49.707 29.5085 49.1211 31.6406C48.5352 33.7728 47.6888 35.7585 46.582 37.5977C45.4753 39.4368 44.1732 41.1214 42.6758 42.6514C41.1784 44.1813 39.4938 45.4915 37.6221 46.582C35.7503 47.6725 33.7565 48.5107 31.6406 49.0967C29.5247 49.6826 27.3112 49.9837 25 50C22.7051 50 20.4915 49.707 18.3594 49.1211C16.2272 48.5352 14.2415 47.6888 12.4023 46.582C10.5632 45.4753 8.87858 44.1732 7.34863 42.6758C5.81869 41.1784 4.50846 39.4938 3.41797 37.6221C2.32747 35.7503 1.48926 33.7565 0.90332 31.6406C0.317383 29.5247 0.016276 27.3112 0 25C0 22.7051 0.292969 20.4915 0.878906 18.3594C1.46484 16.2272 2.3112 14.2415 3.41797 12.4023C4.52474 10.5632 5.82682 8.87858 7.32422 7.34863C8.82161 5.81869 10.5062 4.50846 12.3779 3.41797C14.2497 2.32747 16.2435 1.48926 18.3594 0.90332C20.4753 0.317383 22.6888 0.016276 25 0ZM39.7217 16.7236L36.4014 13.4033L20.3125 29.4922L13.5986 22.7783L10.2783 26.0986L20.3125 36.1328L39.7217 16.7236Z" fill="black"/>
</svg>
