<svg width="42" height="44" viewBox="0 0 42 44" fill="none" xmlns="http://www.w3.org/2000/svg">
<path d="M0 41.6667L3.125 38.5417L6.25 41.6667L9.375 38.5417L12.5 41.6667L15.7917 38.375C16.0833 38.7708 16.4167 39.125 16.7708 39.4792C19.504 42.1715 23.1879 43.6786 27.0244 43.6738C30.8609 43.6691 34.5411 42.1529 37.2676 39.4538C39.9941 36.7547 41.5474 33.09 41.5909 29.2538C41.6344 25.4175 40.1646 21.7186 37.5 18.9583V0L34.375 3.125L31.25 0L28.125 3.125L25 0L21.875 3.125L18.75 0L15.625 3.125L12.5 0L9.375 3.125L6.25 0L3.125 3.125L0 0V41.6667ZM37.1875 29.1667C37.1875 30.5 36.9375 31.8125 36.4583 33.0417C35.9167 34.25 35.1667 35.4167 34.2292 36.3125C33.3333 37.25 32.1667 38 30.9583 38.5417C29.7292 39.0208 28.4167 39.2708 27.0833 39.2708C21.5 39.2708 16.9792 34.75 16.9792 29.1667C16.9792 26.4792 18.0417 23.9583 19.9375 22.0208C21.875 20.125 24.3958 19.0625 27.0833 19.0625C32.6458 19.0625 37.1875 23.5833 37.1875 29.1667ZM25 30.6042V22.9167H28.125V28.7917L33.2083 31.7292L31.6458 34.4375L25 30.6042Z" fill="#1A1A1A"/>
</svg>
