<svg width="20" height="21" viewBox="0 0 20 21" fill="none" xmlns="http://www.w3.org/2000/svg">
<path d="M0 20L1.5 18.5L3 20L4.5 18.5L6 20L7.58 18.42C7.72 18.61 7.88 18.78 8.05 18.95C9.36192 20.2423 11.1302 20.9657 12.9717 20.9634C14.8133 20.9611 16.5797 20.2334 17.8885 18.9378C19.1972 17.6423 19.9427 15.8832 19.9636 14.0418C19.9845 12.2004 19.279 10.4249 18 9.1V0L16.5 1.5L15 0L13.5 1.5L12 0L10.5 1.5L9 0L7.5 1.5L6 0L4.5 1.5L3 0L1.5 1.5L0 0V20ZM17.85 14C17.85 14.64 17.73 15.27 17.5 15.86C17.24 16.44 16.88 17 16.43 17.43C16 17.88 15.44 18.24 14.86 18.5C14.27 18.73 13.64 18.85 13 18.85C10.32 18.85 8.15 16.68 8.15 14C8.15 12.71 8.66 11.5 9.57 10.57C10.5 9.66 11.71 9.15 13 9.15C15.67 9.15 17.85 11.32 17.85 14ZM12 14.69V11H13.5V13.82L15.94 15.23L15.19 16.53L12 14.69Z" fill="#ABABAB"/>
</svg>
